<svg width="439" height="516" viewBox="0 0 439 516" fill="none" xmlns="http://www.w3.org/2000/svg">
<path d="M237.289 516V438.6H266.089C277.289 438.6 285.089 436.4 289.489 432C293.889 427.2 296.089 419 296.089 407.4V342C296.089 298.8 310.689 270.8 339.889 258C310.689 244.8 296.089 216.6 296.089 173.4V109.2C296.089 97.6 293.889 89.4 289.489 84.6C285.089 79.8 277.289 77.4 266.089 77.4H237.289V0H301.489C363.489 0 394.489 31 394.489 93V187.8C394.489 199.4 396.689 207.6 401.089 212.4C405.489 216.8 413.289 219 424.489 219H438.289V296.4H424.489C413.289 296.4 405.489 298.8 401.089 303.6C396.689 308 394.489 316 394.489 327.6V423C394.489 485 363.489 516 301.489 516H237.289Z" fill="#166AEA"/>
<path d="M201 438.6V516H136.8C74.8 516 43.8 485 43.8 423V327.6C43.8 316 41.6 308 37.2 303.6C32.8 298.8 25 296.4 13.8 296.4H0V219H13.8C25 219 32.8 216.8 37.2 212.4C41.6 207.6 43.8 199.4 43.8 187.8V93C43.8 31 74.8 0 136.8 0H201V77.4H172.2C161 77.4 153.2 79.8 148.8 84.6C144.4 89.4 142.2 97.6 142.2 109.2V173.4C142.2 216.6 127.6 244.6 98.4 257.4C127.6 270.6 142.2 298.8 142.2 342V407.4C142.2 419 144.4 427.2 148.8 432C153.2 436.4 161 438.6 172.2 438.6H201Z" fill="#166AEA"/>
</svg>
