<svg width="524" height="440" viewBox="0 0 524 440" fill="none" xmlns="http://www.w3.org/2000/svg">
<path d="M396.932 162.6C392.532 176.6 387.332 190.8 381.332 205.2C375.332 219.2 370.132 229.2 365.732 235.2C358.932 245.6 349.532 250.8 337.532 250.8C327.932 250.8 319.732 247.6 312.932 241.2C306.132 234.4 302.732 227 302.732 219C302.732 209.8 305.732 201.4 311.732 193.8C316.132 187.8 323.932 180 335.132 170.4C346.732 160.4 358.532 151.4 370.532 143.4C355.332 143.4 340.732 142.8 326.732 141.6C313.132 140 302.732 138.4 295.532 136.8C278.732 132 270.332 121.6 270.332 105.6C270.332 95.2 273.332 86.8 279.332 80.4C285.732 73.6 293.532 70.2 302.732 70.2C308.732 70.2 314.532 71.2 320.132 73.2C326.132 75.6 334.132 80 344.132 86.4C354.532 92.8 366.532 101.4 380.132 112.2C375.332 98.2 371.132 83.8 367.532 69C364.332 53.8 362.732 42.4 362.732 34.8C362.732 24.4 365.732 16 371.732 9.60002C378.132 3.2 386.532 0 396.932 0C407.332 0 415.532 3.2 421.532 9.60002C427.932 16 431.132 24.4 431.132 34.8C431.132 42.4 429.332 53.8 425.732 69C422.532 83.8 418.532 98.2 413.732 112.2C427.732 101.4 439.732 92.8 449.732 86.4C459.732 80 467.732 75.6 473.732 73.2C479.332 71.2 485.132 70.2 491.132 70.2C500.332 70.2 507.932 73.6 513.932 80.4C520.332 86.8 523.532 95.2 523.532 105.6C523.532 121.6 515.132 132 498.332 136.8C491.132 138.4 480.532 140 466.532 141.6C452.932 142.8 438.532 143.4 423.332 143.4C435.332 151.4 446.932 160.4 458.132 170.4C469.732 180 477.732 187.8 482.132 193.8C488.132 201.4 491.132 209.8 491.132 219C491.132 227 487.732 234.4 480.932 241.2C474.132 247.6 465.932 250.8 456.332 250.8C444.332 250.8 434.932 245.6 428.132 235.2C424.132 229.2 418.932 219.2 412.532 205.2C406.532 190.8 401.332 176.6 396.932 162.6Z" fill="#166AEA"/>
<path d="M96 439.2H0L171 0.599854H267L96 439.2Z" fill="#166AEA"/>
</svg>
