<svg width="568" height="559" viewBox="0 0 568 559" fill="none" xmlns="http://www.w3.org/2000/svg">
<path d="M254.392 414.566C232.638 414.566 212.496 409.128 193.966 398.25C175.435 387.372 160.531 372.264 149.251 352.925C138.374 333.184 132.936 310.22 132.936 284.032C132.936 257.442 138.374 234.478 149.251 215.139C160.531 195.398 175.435 180.089 193.966 169.211C212.496 158.333 232.84 152.894 254.996 152.894C286.82 152.894 311.594 165.383 329.319 190.362V160.75H411.498V296.723C411.498 324.522 421.972 338.422 442.919 338.422C469.506 338.422 482.8 315.054 482.8 268.32C482.8 232.463 474.743 200.434 458.63 172.232C442.516 143.628 420.159 121.066 391.557 104.548C363.359 87.627 330.729 79.1665 293.668 79.1665C264.664 79.1665 237.472 84.404 212.094 94.8789C186.715 105.354 164.559 119.858 145.626 138.39C126.692 156.923 111.787 178.679 100.911 203.657C90.4369 228.636 85.2 255.629 85.2 284.637C85.2 311.63 90.2355 337.012 100.306 360.782C110.377 384.149 124.275 404.897 142 423.027C160.128 440.754 181.277 454.653 205.447 464.725C230.02 474.797 256.607 479.833 285.209 479.833C312.601 479.833 337.577 475.402 360.136 466.538C382.695 457.675 400.823 445.991 414.519 431.488L469.506 502.193C458.63 511.863 444.128 520.928 426 529.388C407.872 538.251 386.925 545.302 363.157 550.539C339.39 556.18 313.81 559 286.417 559C245.328 559 207.26 551.95 172.213 537.849C137.569 524.151 107.356 504.812 81.5745 479.833C55.7929 454.855 35.6511 425.646 21.1489 392.206C7.04965 358.767 0 322.508 0 283.428C0 243.14 7.45249 205.873 22.3575 171.628C37.2624 136.98 58.0085 106.965 84.5958 81.5838C111.183 55.7993 142.403 35.8566 178.255 21.7556C214.108 7.25189 252.78 0 294.272 0C333.75 0 370.006 7.05045 403.038 21.1513C436.474 34.8493 465.478 53.9863 490.051 78.5622C514.624 102.735 533.759 130.735 547.455 162.563C561.152 194.391 568 228.233 568 264.09C568 311.63 556.116 348.695 532.349 375.285C508.984 401.473 476.153 414.566 433.855 414.566C413.714 414.566 395.989 410.739 380.681 403.084C365.373 395.43 353.489 384.753 345.03 371.055C334.959 384.753 322.068 395.43 306.357 403.084C290.647 410.739 273.325 414.566 254.392 414.566ZM216.928 284.032C216.928 302.565 222.366 317.875 233.243 329.961C244.119 342.048 258.621 348.091 276.749 348.091C289.237 348.091 299.711 345.271 308.17 339.63C317.033 333.99 323.881 326.738 328.715 317.875C328.715 315.457 328.715 312.839 328.715 310.018V281.615C328.715 261.874 323.679 246.564 313.609 235.686C303.538 224.809 290.244 219.37 273.728 219.37C256.406 219.37 242.508 225.413 232.034 237.499C221.963 249.586 216.928 265.097 216.928 284.032Z" fill="#166AEA"/>
</svg>
