<svg width="760" height="465" viewBox="0 0 760 465" fill="none" xmlns="http://www.w3.org/2000/svg">
<path d="M201.499 0C237.662 0 275.438 8.65108 311.587 33.083C336.93 50.2113 360.532 74.4584 382.033 107.188C401.046 76.8629 421.368 53.4498 444.646 36.5117C479.237 11.3434 517.448 2.54791 560.631 2.54785C619.21 2.54785 669.771 26.1705 705.299 67.4727C740.54 108.442 759.583 165.057 759.583 229.517C759.583 292.932 742.372 351.387 708.021 394.634C673.157 438.527 621.915 464.976 558.934 464.976C516.548 464.976 477.911 456.16 442.755 431.358C418.865 414.506 397.86 391.163 378.527 360.779C361.699 385.627 342.411 406.484 320.166 422.713C285.211 448.214 244.567 461.097 198.397 461.578L198.371 461.579H198.345C140.686 462.072 90.1961 439.411 54.5244 398.067C19.1568 357.076 8.28248e-05 299.736 0 232.913C0 168.971 18.77 111.074 53.9463 68.6152C89.4716 25.7356 140.706 5.16761e-05 201.499 0ZM572.691 436.182V436.183V436.182ZM585.941 434.722C585.548 434.78 585.154 434.838 584.759 434.894L585.942 434.722C586.336 434.663 586.729 434.603 587.121 434.542L585.941 434.722ZM210.689 432.79C211.322 432.747 211.954 432.7 212.584 432.651C211.954 432.7 211.322 432.747 210.689 432.79ZM213.104 432.611C213.613 432.571 214.121 432.528 214.629 432.484C214.121 432.528 213.613 432.571 213.104 432.611ZM598.677 432.324C599.081 432.232 599.485 432.137 599.888 432.041C599.485 432.137 599.081 432.232 598.677 432.324ZM600.45 431.906C600.76 431.832 601.068 431.756 601.377 431.68C601.068 431.756 600.76 431.832 600.45 431.906ZM601.603 431.624C601.972 431.532 602.341 431.439 602.709 431.345C602.341 431.439 601.972 431.532 601.603 431.624ZM602.991 431.272C603.053 431.256 603.116 431.242 603.178 431.226C603.55 431.129 603.921 431.032 604.292 430.933H604.291C603.859 431.048 603.425 431.16 602.991 431.272ZM642.391 415.082C641.76 415.452 641.127 415.818 640.49 416.179L641.443 415.634C641.76 415.451 642.076 415.267 642.391 415.082ZM229.909 372.51C229.018 372.756 228.124 372.99 227.226 373.213L227.225 373.214C228.123 372.991 229.017 372.757 229.908 372.511L229.909 372.51ZM557.235 116.032C532.83 116.032 514.61 124.916 496.512 144.714C478.703 164.195 461.943 193.297 442.26 233.666C459.672 273.864 476.598 303.075 494.567 322.445C513.263 342.599 532.401 351.491 555.537 351.491C583.349 351.491 605.272 339.215 620.985 318.804C637.132 297.829 646.947 267.693 646.947 233.762C646.947 161.754 606.754 116.032 557.235 116.032ZM271.435 350.938C271.803 350.648 272.17 350.354 272.537 350.059C272.17 350.354 271.803 350.648 271.435 350.938ZM272.784 349.859C273.108 349.598 273.431 349.335 273.754 349.07C273.431 349.335 273.108 349.598 272.784 349.859ZM202.349 112.636C175.476 112.636 154.518 124.856 139.376 145.666C123.743 167.151 114.334 198.122 114.334 232.913C114.334 266.253 123.012 295.871 137.897 316.35C152.158 335.968 172.549 348.096 200.65 348.096C242.344 348.096 279.853 318.014 319.896 235.689C301.64 193.76 283.872 163.204 265.104 142.936C245.562 121.83 225.766 112.636 202.349 112.636ZM289.942 333.809V333.81V333.809ZM381.861 309.231C382.447 310.386 383.033 311.532 383.619 312.668C382.45 310.401 381.282 308.098 380.117 305.756L381.861 309.231ZM675.011 243.485C674.943 244.873 674.863 246.256 674.768 247.635C674.863 246.256 674.943 244.873 675.011 243.485ZM86.1621 240.355C86.1839 240.987 86.2082 241.617 86.2354 242.247C86.2082 241.617 86.1838 240.987 86.1621 240.355ZM675.188 238.688C675.163 239.675 675.131 240.66 675.093 241.643C675.148 240.237 675.189 238.828 675.215 237.415L675.188 238.688ZM86.0625 236.449C86.073 237.1 86.0879 237.751 86.1045 238.4C86.1001 238.228 86.0948 238.055 86.0908 237.882L86.0625 236.449ZM675.239 232.079V231.874C675.235 231.384 675.228 230.894 675.22 230.405C675.229 230.962 675.234 231.52 675.239 232.079ZM442.934 171.67C442.802 171.895 442.67 172.12 442.539 172.346C442.671 172.12 442.802 171.895 442.934 171.67ZM97.1865 166.035C97.1609 166.106 97.1349 166.177 97.1094 166.248C97.1349 166.177 97.1609 166.106 97.1865 166.035ZM140.175 104.692C139.768 104.999 139.364 105.309 138.961 105.621C139.766 104.996 140.579 104.384 141.401 103.783L140.175 104.692ZM151.606 97.2217C151.238 97.4284 150.871 97.6383 150.506 97.8496C150.871 97.6384 151.238 97.4284 151.606 97.2217ZM152.909 96.5039C152.543 96.7022 152.179 96.9028 151.815 97.1055C152.179 96.9028 152.543 96.7021 152.909 96.5039ZM154.245 95.7939C153.847 96.002 153.45 96.2126 153.055 96.4258C153.45 96.2126 153.847 96.002 154.245 95.7939ZM156.964 94.4268C156.147 94.8219 155.337 95.2282 154.533 95.6445C154.931 95.4384 155.33 95.2342 155.731 95.0332C156.141 94.8283 156.551 94.6263 156.964 94.4268ZM158.407 93.7422C158.015 93.9241 157.625 94.1091 157.235 94.2959C157.625 94.109 158.015 93.9242 158.407 93.7422ZM159.791 93.1133C159.425 93.2761 159.061 93.4414 158.698 93.6084C159.061 93.4414 159.425 93.2761 159.791 93.1133ZM161.132 92.5283C160.736 92.6977 160.341 92.8688 159.948 93.043C160.341 92.8688 160.736 92.6976 161.132 92.5283ZM162.746 91.8545C162.348 92.0166 161.951 92.1816 161.556 92.3486C161.951 92.1817 162.348 92.0166 162.746 91.8545ZM175.172 87.7324C174.92 87.798 174.669 87.8623 174.418 87.9297C174.669 87.8623 174.92 87.798 175.172 87.7324ZM176.448 87.4082C176.248 87.4577 176.047 87.506 175.848 87.5566C176.047 87.506 176.248 87.4576 176.448 87.4082ZM177.846 87.0732C177.65 87.1187 177.453 87.1634 177.258 87.21C177.453 87.1634 177.65 87.1187 177.846 87.0732ZM179.249 86.7588C179.065 86.7987 178.882 86.8381 178.698 86.8789C178.882 86.8381 179.065 86.7987 179.249 86.7588ZM180.744 86.4453C180.532 86.4881 180.32 86.5312 180.108 86.5752C180.32 86.5312 180.532 86.4881 180.744 86.4453ZM182.297 86.1445C182.031 86.194 181.765 86.2445 181.5 86.2959C181.765 86.2445 182.031 86.1939 182.297 86.1445ZM183.68 85.8975C183.411 85.9437 183.142 85.9908 182.874 86.0391C183.142 85.9909 183.411 85.9437 183.68 85.8975ZM185.12 85.6602C184.889 85.6966 184.658 85.7336 184.427 85.7715C184.658 85.7336 184.889 85.6966 185.12 85.6602ZM186.599 85.4375C186.35 85.473 186.103 85.5107 185.855 85.5479C186.103 85.5107 186.35 85.473 186.599 85.4375ZM188.042 85.2412C187.81 85.2711 187.579 85.3026 187.348 85.334C187.579 85.3026 187.81 85.2711 188.042 85.2412ZM189.556 85.0566C189.33 85.0825 189.106 85.1105 188.881 85.1377C189.106 85.1105 189.33 85.0825 189.556 85.0566ZM191.055 84.8945C190.791 84.9211 190.528 84.9511 190.265 84.9795C190.528 84.9511 190.791 84.9211 191.055 84.8945ZM192.555 84.7539C192.316 84.7746 192.078 84.7981 191.84 84.8203C192.078 84.7981 192.316 84.7746 192.555 84.7539ZM197.207 84.4492C195.782 84.5128 194.369 84.6047 192.969 84.7207C193.814 84.6507 194.663 84.5891 195.517 84.5381C196.078 84.5046 196.642 84.4754 197.207 84.4502V84.4492ZM468.026 54.7783C467.391 55.1882 466.759 55.6055 466.128 56.0273C467.21 55.3044 468.296 54.598 469.389 53.9102L468.026 54.7783ZM524.675 33.5137C524.507 33.5409 524.339 33.5681 524.172 33.5957C524.339 33.5681 524.507 33.5409 524.675 33.5137ZM526.015 33.3008C525.914 33.3163 525.814 33.332 525.714 33.3477C525.887 33.3206 526.061 33.2942 526.234 33.2676L526.015 33.3008Z" fill="#166AEA"/>
</svg>
