<svg width="158" height="21" viewBox="0 0 158 21" fill="none" xmlns="http://www.w3.org/2000/svg">
<path d="M53.9103 15.614H44.3672V0.383427H53.9103V1.87453H46.0713V7.0721H53.5268V8.56321H46.0713V14.1229H53.9103V15.614Z" fill="#262F3B"/>
<path d="M65.668 15.614H64.0278V9.58568C64.0278 8.478 63.7935 7.64725 63.3249 7.09341C62.8704 6.52537 62.2527 6.24135 61.4716 6.24135C60.9036 6.24135 60.3711 6.40466 59.874 6.73128C59.377 7.0437 58.9723 7.54784 58.6598 8.24369C58.3474 8.92534 58.1912 9.8129 58.1912 10.9064V15.614H56.551V5.13367H58.1699V7.28512C58.5107 6.37625 59.0149 5.73721 59.6823 5.36798C60.3498 4.98456 61.0527 4.79284 61.7912 4.79284C62.9982 4.79284 63.9426 5.19047 64.6243 5.98573C65.3201 6.76678 65.668 7.90286 65.668 9.39397V15.614Z" fill="#262F3B"/>
<path d="M78.5846 14.698C78.5846 15.7347 78.3574 16.6578 77.9029 17.4672C77.4627 18.2767 76.845 18.9157 76.0497 19.3844C75.2686 19.853 74.374 20.0873 73.3657 20.0873C72.4568 20.0873 71.619 19.9098 70.8521 19.5548C70.0995 19.214 69.4604 18.724 68.935 18.085L70.0214 16.9773C70.845 18.0992 71.9527 18.6601 73.3444 18.6601C74.0545 18.6601 74.6793 18.4897 75.2189 18.1489C75.7586 17.8223 76.1775 17.3607 76.4757 16.7643C76.7882 16.1679 76.9444 15.4791 76.9444 14.698V13.846C76.5893 14.4282 76.0852 14.8898 75.432 15.2306C74.7929 15.5714 74.0616 15.7418 73.2379 15.7418C72.258 15.7418 71.3847 15.5075 70.6178 15.0389C69.851 14.5702 69.2474 13.9241 68.8072 13.1004C68.3812 12.2768 68.1681 11.3395 68.1681 10.2886C68.1681 9.25196 68.3883 8.32179 68.8285 7.49814C69.2687 6.66028 69.8652 5.99993 70.6178 5.51709C71.3705 5.03426 72.2225 4.79284 73.174 4.79284C74.0403 4.79284 74.8 4.99166 75.4533 5.38928C76.1207 5.77271 76.6248 6.31235 76.9657 7.0082V5.13367H78.5846V14.698ZM69.8936 10.2886C69.8936 11.0839 70.0427 11.7868 70.3409 12.3975C70.6533 12.9939 71.0793 13.4626 71.619 13.8034C72.1586 14.1442 72.7764 14.3146 73.4722 14.3146C74.2817 14.3146 74.9988 14.0803 75.6237 13.6117C76.2485 13.143 76.6887 12.5395 76.9444 11.801V10.6721C76.9444 9.7916 76.7953 9.01764 76.497 8.3502C76.1988 7.68275 75.7799 7.16441 75.2402 6.79518C74.7148 6.41176 74.1042 6.22004 73.4083 6.22004C72.7267 6.22004 72.116 6.39756 71.5764 6.75258C71.0509 7.09341 70.6391 7.56914 70.3409 8.17978C70.0427 8.79043 69.8936 9.49338 69.8936 10.2886Z" fill="#262F3B"/>
<path d="M83.8978 1.17158C83.8978 1.51241 83.7842 1.79643 83.557 2.02364C83.344 2.23666 83.0742 2.34317 82.7475 2.34317C82.4209 2.34317 82.144 2.23666 81.9168 2.02364C81.7038 1.79643 81.5972 1.51241 81.5972 1.17158C81.5972 0.83076 81.7038 0.55384 81.9168 0.340825C82.144 0.113608 82.4209 0 82.7475 0C83.0742 0 83.344 0.113608 83.557 0.340825C83.7842 0.55384 83.8978 0.83076 83.8978 1.17158ZM83.5783 15.614H81.9381V5.13367H83.5783V15.614Z" fill="#262F3B"/>
<path d="M96.0518 15.614H94.4116V9.58568C94.4116 8.478 94.1773 7.64725 93.7087 7.09341C93.2542 6.52537 92.6365 6.24135 91.8554 6.24135C91.2874 6.24135 90.7548 6.40466 90.2578 6.73128C89.7608 7.0437 89.356 7.54784 89.0436 8.24369C88.7312 8.92534 88.575 9.8129 88.575 10.9064V15.614H86.9348V5.13367H88.5537V7.28512C88.8945 6.37625 89.3987 5.73721 90.0661 5.36798C90.7335 4.98456 91.4365 4.79284 92.1749 4.79284C93.382 4.79284 94.3264 5.19047 95.0081 5.98573C95.7039 6.76678 96.0518 7.90286 96.0518 9.39397V15.614Z" fill="#262F3B"/>
<path d="M107.179 12.6105L108.287 13.6756C107.733 14.4424 107.08 15.0176 106.327 15.401C105.589 15.7702 104.772 15.9548 103.877 15.9548C102.826 15.9548 101.896 15.7134 101.087 15.2306C100.292 14.7478 99.6667 14.0874 99.2123 13.2495C98.772 12.3975 98.5519 11.4389 98.5519 10.3738C98.5519 9.30876 98.772 8.3573 99.2123 7.51944C99.6667 6.66738 100.277 5.99993 101.044 5.51709C101.825 5.03426 102.699 4.79284 103.664 4.79284C104.616 4.79284 105.454 5.02716 106.178 5.49579C106.916 5.96443 107.491 6.61767 107.903 7.45553C108.315 8.27919 108.521 9.23066 108.521 10.3099V10.949H100.277C100.391 11.9999 100.774 12.859 101.428 13.5265C102.095 14.1939 102.947 14.5276 103.984 14.5276C104.637 14.5276 105.226 14.3714 105.752 14.059C106.277 13.7466 106.753 13.2637 107.179 12.6105ZM103.664 6.22004C102.784 6.22004 102.031 6.53247 101.406 7.15731C100.796 7.78215 100.426 8.59871 100.299 9.60698H106.817C106.718 8.57031 106.384 7.74665 105.816 7.13601C105.262 6.52536 104.545 6.22004 103.664 6.22004Z" fill="#262F3B"/>
<path d="M119.186 12.6105L120.294 13.6756C119.74 14.4424 119.087 15.0176 118.334 15.401C117.596 15.7702 116.779 15.9548 115.884 15.9548C114.833 15.9548 113.903 15.7134 113.094 15.2306C112.299 14.7478 111.674 14.0874 111.219 13.2495C110.779 12.3975 110.559 11.4389 110.559 10.3738C110.559 9.30876 110.779 8.3573 111.219 7.51944C111.674 6.66738 112.284 5.99993 113.051 5.51709C113.832 5.03426 114.706 4.79284 115.671 4.79284C116.623 4.79284 117.461 5.02716 118.185 5.49579C118.923 5.96443 119.499 6.61767 119.91 7.45553C120.322 8.27919 120.528 9.23066 120.528 10.3099V10.949H112.284C112.398 11.9999 112.781 12.859 113.435 13.5265C114.102 14.1939 114.954 14.5276 115.991 14.5276C116.644 14.5276 117.233 14.3714 117.759 14.059C118.284 13.7466 118.76 13.2637 119.186 12.6105ZM115.671 6.22004C114.791 6.22004 114.038 6.53247 113.413 7.15731C112.803 7.78215 112.434 8.59871 112.306 9.60698H118.824C118.725 8.57031 118.391 7.74665 117.823 7.13601C117.269 6.52536 116.552 6.22004 115.671 6.22004Z" fill="#262F3B"/>
<path d="M128.914 4.96325V6.53957H128.552C127.899 6.53957 127.288 6.70998 126.72 7.0508C126.166 7.37743 125.719 7.88866 125.378 8.58451C125.037 9.26616 124.867 10.1466 124.867 11.2259V15.614H123.226V5.13367H124.845V7.47683C125.2 6.56797 125.726 5.92182 126.422 5.5384C127.117 5.15497 127.835 4.96325 128.573 4.96325H128.914Z" fill="#262F3B"/>
<path d="M132.929 1.17158C132.929 1.51241 132.815 1.79643 132.588 2.02364C132.375 2.23666 132.105 2.34317 131.778 2.34317C131.452 2.34317 131.175 2.23666 130.948 2.02364C130.735 1.79643 130.628 1.51241 130.628 1.17158C130.628 0.83076 130.735 0.55384 130.948 0.340825C131.175 0.113608 131.452 0 131.778 0C132.105 0 132.375 0.113608 132.588 0.340825C132.815 0.55384 132.929 0.83076 132.929 1.17158ZM132.609 15.614H130.969V5.13367H132.609V15.614Z" fill="#262F3B"/>
<path d="M145.083 15.614H143.443V9.58568C143.443 8.478 143.208 7.64725 142.74 7.09341C142.285 6.52537 141.667 6.24135 140.886 6.24135C140.318 6.24135 139.786 6.40466 139.289 6.73128C138.792 7.0437 138.387 7.54784 138.075 8.24369C137.762 8.92534 137.606 9.8129 137.606 10.9064V15.614H135.966V5.13367H137.585V7.28512C137.925 6.37625 138.43 5.73721 139.097 5.36798C139.764 4.98456 140.467 4.79284 141.206 4.79284C142.413 4.79284 143.357 5.19047 144.039 5.98573C144.735 6.76678 145.083 7.90286 145.083 9.39397V15.614Z" fill="#262F3B"/>
<path d="M157.999 14.698C157.999 15.7347 157.772 16.6578 157.318 17.4672C156.877 18.2767 156.26 18.9157 155.464 19.3844C154.683 19.853 153.789 20.0873 152.78 20.0873C151.872 20.0873 151.034 19.9098 150.267 19.5548C149.514 19.214 148.875 18.724 148.35 18.085L149.436 16.9773C150.26 18.0992 151.367 18.6601 152.759 18.6601C153.469 18.6601 154.094 18.4897 154.634 18.1489C155.173 17.8223 155.592 17.3607 155.89 16.7643C156.203 16.1679 156.359 15.4791 156.359 14.698V13.846C156.004 14.4282 155.5 14.8898 154.847 15.2306C154.208 15.5714 153.476 15.7418 152.653 15.7418C151.673 15.7418 150.799 15.5075 150.033 15.0389C149.266 14.5702 148.662 13.9241 148.222 13.1004C147.796 12.2768 147.583 11.3395 147.583 10.2886C147.583 9.25196 147.803 8.32179 148.243 7.49814C148.683 6.66028 149.28 5.99993 150.033 5.51709C150.785 5.03426 151.637 4.79284 152.589 4.79284C153.455 4.79284 154.215 4.99166 154.868 5.38928C155.535 5.77271 156.04 6.31235 156.38 7.0082V5.13367H157.999V14.698ZM149.308 10.2886C149.308 11.0839 149.457 11.7868 149.756 12.3975C150.068 12.9939 150.494 13.4626 151.034 13.8034C151.573 14.1442 152.191 14.3146 152.887 14.3146C153.696 14.3146 154.414 14.0803 155.038 13.6117C155.663 13.143 156.103 12.5395 156.359 11.801V10.6721C156.359 9.7916 156.21 9.01764 155.912 8.3502C155.614 7.68275 155.195 7.16441 154.655 6.79518C154.13 6.41176 153.519 6.22004 152.823 6.22004C152.141 6.22004 151.531 6.39756 150.991 6.75258C150.466 7.09341 150.054 7.56914 149.756 8.17978C149.457 8.79043 149.308 9.49338 149.308 10.2886Z" fill="#262F3B"/>
<g clip-path="url(#clip0_1084_10368)">
<path d="M39.0325 0.499023H36.8756C36.2773 0.499023 35.7181 0.795304 35.382 1.29079L32.4977 5.54588C32.4207 5.65872 32.2543 5.65872 32.1774 5.54588L29.293 1.29079C28.9576 0.795304 28.3977 0.499023 27.7994 0.499023H25.6426L30.7809 8.07876L25.6709 15.6163H27.8278C28.4261 15.6163 28.9853 15.32 29.3214 14.8245L32.1774 10.6116C32.2543 10.4988 32.4207 10.4988 32.4977 10.6116L35.3537 14.8245C35.6891 15.32 36.2489 15.6163 36.8473 15.6163H39.0041L33.8941 8.07876L39.0325 0.499023Z" fill="#262F3B"/>
<path d="M21.1992 2.04536V15.6163H22.23C23.0843 15.6163 23.7766 14.9241 23.7766 14.0699V0.499023H22.7458C21.8915 0.499023 21.1992 1.19119 21.1992 2.04536Z" fill="#262F3B"/>
<path d="M19.3283 0.499023H18.4109C17.4009 0.499023 16.5258 1.19749 16.302 2.18215L14.2498 11.2036L12.4536 2.78227C12.1214 1.22586 10.5244 0.176267 8.89023 0.627622C7.84933 0.915077 7.07763 1.79446 6.85256 2.85036L5.07464 11.1922L3.02625 2.18278C2.8018 1.19812 1.92671 0.499023 0.9167 0.499023H0L3.43794 15.6156H4.74049C5.92262 15.6156 6.94397 14.7892 7.19049 13.6331L9.3883 3.31936C9.41541 3.19139 9.53015 3.09873 9.66066 3.09873C9.79117 3.09873 9.90591 3.19139 9.93302 3.31936L12.1327 13.6337C12.3792 14.7898 13.4006 15.6156 14.5827 15.6156H15.8897L19.3283 0.499023Z" fill="#262F3B"/>
</g>
<defs>
<clipPath id="clip0_1084_10368">
<rect width="39.0461" height="15.1172" fill="white" transform="translate(0 0.501953)"/>
</clipPath>
</defs>
</svg>
